<?xml version="1.0" encoding="UTF-8" standalone="no"?>
<!-- Generator: Adobe Illustrator 16.0.0, SVG Export Plug-In . SVG Version: 6.00 Build 0)  -->

<svg
   xmlns:dc="http://purl.org/dc/elements/1.1/"
   xmlns:cc="http://creativecommons.org/ns#"
   xmlns:rdf="http://www.w3.org/1999/02/22-rdf-syntax-ns#"
   xmlns:svg="http://www.w3.org/2000/svg"
   xmlns="http://www.w3.org/2000/svg"
   xmlns:sodipodi="http://sodipodi.sourceforge.net/DTD/sodipodi-0.dtd"
   xmlns:inkscape="http://www.inkscape.org/namespaces/inkscape"
   version="1.1"
   id="Layer_1"
   x="0px"
   y="0px"
   width="2164.5244"
   height="677.20709"
   viewBox="0 0 2164.5244 677.20709"
   enable-background="new 0 0 612 792"
   xml:space="preserve"
   sodipodi:docname="EB_Brain_White.svg"
   inkscape:version="0.92.3 (2405546, 2018-03-11)"><metadata
   id="metadata21"><rdf:RDF><cc:Work
       rdf:about=""><dc:format>image/svg+xml</dc:format><dc:type
         rdf:resource="http://purl.org/dc/dcmitype/StillImage" /><dc:title></dc:title></cc:Work></rdf:RDF></metadata><defs
   id="defs19" /><sodipodi:namedview
   pagecolor="#ffffff"
   bordercolor="#666666"
   borderopacity="1"
   objecttolerance="10"
   gridtolerance="10"
   guidetolerance="10"
   inkscape:pageopacity="0"
   inkscape:pageshadow="2"
   inkscape:window-width="1920"
   inkscape:window-height="983"
   id="namedview17"
   showgrid="false"
   fit-margin-top="25"
   fit-margin-left="25"
   fit-margin-right="25"
   fit-margin-bottom="25"
   inkscape:zoom="0.42140707"
   inkscape:cx="1095.6775"
   inkscape:cy="106.20242"
   inkscape:window-x="0"
   inkscape:window-y="27"
   inkscape:window-maximized="1"
   inkscape:current-layer="g14" />
<g
   id="g14"
   transform="translate(772.49163,-71.312977)">
	<path
   stroke-miterlimit="10"
   d="m 582.835,453.127 c -4.049,-4.112 -4.543,-6.35 -0.509,-11.069 24.122,-28.22 23.804,-68.165 -0.654,-95.496 -3.896,-4.354 -3.816,-8.043 -2.393,-13.146 8.137,-29.15 3.248,-56.23 -17.164,-78.563 -8.939,-9.782 -13.906,-18.641 -15.379,-32.27 -3.582,-33.129 -27.684,-55.785 -61.67,-61.616 -6.858,-1.177 -12,-2.32 -14.804,-10.678 -9.485,-28.253 -30.075,-45.126 -59.021,-50.664 -29.533,-5.652 -55.174,3.018 -75.422,25.424 -10.163,11.25 -17.387,24.819 -17.118,40.175 0.614,35.064 2.521,70.106 3.953,105.155 0.106,2.62 -0.866,6.041 1.633,7.573 3.137,1.927 5.4,-1.421 7.69,-2.952 19.312,-12.905 38.508,-25.983 57.803,-38.916 2.271,-1.522 4.298,-4.028 8.75,-3.342 -23.226,72.54 -46.285,144.564 -69.344,216.586 0.602,0.464 45.767,-27.35 67.747,-41.723 0.486,0.443 0.971,0.887 1.455,1.33 -4.066,12.819 -8.061,25.661 -12.211,38.454 -22.166,68.331 -44.374,136.647 -66.558,204.972 -1.338,4.117 -2.537,8.148 -1.245,12.649 9.963,34.775 43.469,59.221 81.265,56.696 37.369,-2.496 62.488,-23.938 73.22,-59.73 1.444,-4.817 3.315,-5.995 7.971,-4.659 8.433,2.422 17.104,2.61 25.688,0.983 33.611,-6.373 53.9,-34.643 51.027,-71.686 -0.466,-6.002 0.748,-9.012 6.289,-11.87 46.978,-24.241 56.248,-83.771 19.001,-121.617 z"
   id="path2"
   style="fill:#ffffff;stroke:#ffffff;stroke-width:3;stroke-miterlimit:10"
   inkscape:connector-curvature="0" />
	<path
   stroke-miterlimit="10"
   d="m 580.709,454.714 c -5.271,-5.312 -6.088,-8.198 -0.634,-14.089 12.034,-12.995 17.758,-29.187 17.42,-46.734 -0.613,-31.536 -21.355,-58.27 -51.802,-68.489 -2.081,-0.7 -4.83,-0.39 -6.243,-4.153 10.774,2.367 20.228,6.074 28.358,12.394 5.635,4.38 8.031,3.619 9.595,-3.349 7.394,-32.996 -0.699,-60.928 -26.884,-82.892 -4.084,-3.428 -6.291,-6.871 -5.965,-12.34 0.355,-5.902 0.35,-11.853 -0.974,-17.74 -6.73,-29.942 -32.79,-52.143 -63.982,-54.245 -4.462,-0.301 -8.04,-0.459 -9.907,-6.006 -13.418,-39.898 -40.527,-58.093 -82.168,-55.66 -37.136,2.168 -68.336,36.153 -66.297,71.781 1.771,30.974 3.08,61.975 4.632,92.963 0.117,2.338 -0.903,5.436 1.513,6.726 2.85,1.521 4.927,-1.407 7.038,-2.822 20.193,-13.537 40.292,-27.209 60.489,-40.739 2.225,-1.489 4.267,-4.062 8.488,-3.048 -23.215,72.561 -46.27,144.617 -69.608,217.563 4.826,-0.355 7.006,-2.51 9.395,-4.09 17.799,-11.771 35.543,-23.626 53.368,-35.36 1.617,-1.064 3.425,-3.563 5.571,-1.616 1.55,1.408 0.105,3.592 -0.449,5.325 -4.94,15.433 -9.924,30.851 -14.926,46.265 -21.592,66.533 -43.154,133.077 -64.872,199.569 -1.61,4.932 -1.527,9.36 0.265,14.132 6.501,17.328 17.47,30.807 33.407,40.365 42.415,25.442 100.245,3.189 113.991,-43.768 1.964,-6.704 1.45,-11.184 -5.49,-14.365 -4.766,-2.185 -9.094,-5.444 -11.085,-11.034 1.099,0.691 2.333,1.233 3.279,2.093 12.295,11.194 26.788,15.211 43.26,14.63 33.706,-1.192 59.47,-33.107 55.917,-67.436 -0.722,-6.968 -3.351,-8.953 -10.505,-7.33 -21.001,4.77 -40.094,-0.77 -57.692,-12.436 -1.583,-1.051 -3.923,-1.802 -3.537,-5.438 3.448,2.221 6.324,4.13 9.255,5.953 16.438,10.227 34.465,13.1 52.979,8.877 27.811,-6.345 46.496,-23.693 54.164,-51.306 7.64,-27.513 0.688,-51.945 -19.364,-72.151 z"
   id="path4"
   style="fill:#ffffff;stroke:#ffffff;stroke-width:3;stroke-miterlimit:10"
   inkscape:connector-curvature="0" />
	<path
   stroke-miterlimit="10"
   d="m 580.709,454.714 c -5.271,-5.312 -6.088,-8.198 -0.634,-14.089 12.034,-12.995 17.758,-29.187 17.42,-46.734 -0.613,-31.536 -21.355,-58.27 -51.802,-68.489 -2.081,-0.7 -4.83,-0.39 -6.243,-4.153 10.774,2.367 20.228,6.074 28.358,12.394 5.635,4.38 8.031,3.619 9.595,-3.349 7.394,-32.996 -0.699,-60.928 -26.884,-82.892 -4.084,-3.428 -6.291,-6.871 -5.965,-12.34 0.355,-5.902 0.35,-11.853 -0.974,-17.74 -6.73,-29.942 -32.79,-52.143 -63.982,-54.245 -4.462,-0.301 -8.04,-0.459 -9.907,-6.006 -13.418,-39.898 -40.527,-58.093 -82.168,-55.66 -37.136,2.168 -68.336,36.153 -66.297,71.781 1.771,30.974 3.08,61.975 4.632,92.963 0.117,2.338 -0.903,5.436 1.513,6.726 2.85,1.521 4.927,-1.407 7.038,-2.822 20.193,-13.537 40.292,-27.209 60.489,-40.739 2.225,-1.489 4.267,-4.062 8.488,-3.048 -23.215,72.561 -46.27,144.617 -69.608,217.563 4.826,-0.355 7.006,-2.51 9.395,-4.09 17.799,-11.771 35.543,-23.626 53.368,-35.36 1.617,-1.064 3.425,-3.563 5.571,-1.616 1.55,1.408 0.105,3.592 -0.449,5.325 -4.94,15.433 -9.924,30.851 -14.926,46.265 -21.592,66.533 -43.154,133.077 -64.872,199.569 -1.61,4.932 -1.527,9.36 0.265,14.132 6.501,17.328 17.47,30.807 33.407,40.365 42.415,25.442 100.245,3.189 113.991,-43.768 1.964,-6.704 1.45,-11.184 -5.49,-14.365 -4.766,-2.185 -9.094,-5.444 -11.085,-11.034 1.099,0.691 2.333,1.233 3.279,2.093 12.295,11.194 26.788,15.211 43.26,14.63 33.706,-1.192 59.47,-33.107 55.917,-67.436 -0.722,-6.968 -3.351,-8.953 -10.505,-7.33 -21.001,4.77 -40.094,-0.77 -57.692,-12.436 -1.583,-1.051 -3.923,-1.802 -3.537,-5.438 3.448,2.221 6.324,4.13 9.255,5.953 16.438,10.227 34.465,13.1 52.979,8.877 27.811,-6.345 46.496,-23.693 54.164,-51.306 7.64,-27.513 0.688,-51.945 -19.364,-72.151 z"
   id="path6"
   style="fill:#ffffff;stroke:#ffffff;stroke-width:3;stroke-miterlimit:10"
   inkscape:connector-curvature="0" />
	<path
   stroke-miterlimit="10"
   d="m 218.667,412.545 c 11.632,-7.738 22.538,-15.024 33.473,-22.262 10.721,-7.092 21.474,-14.135 32.213,-21.2 0.678,0.443 1.356,0.884 2.034,1.328 -23.421,74.358 -46.842,148.719 -70.374,223.438 4.5,0.295 6.505,-2.238 8.853,-3.809 19.528,-13.073 38.947,-26.31 58.468,-39.39 6.778,-4.544 8.118,-3.837 8.447,4.122 1.418,34.243 3.217,68.479 3.963,102.735 0.28,12.852 -6.384,24.041 -14.461,33.639 -20.812,24.723 -47.435,35.671 -79.399,28.937 -31.048,-6.546 -51.715,-25.767 -61.037,-56.355 -1.644,-5.396 -3.402,-7.271 -9.487,-6.058 -42.87,8.544 -80.852,-27.269 -74.917,-70.546 0.851,-6.2 -0.342,-9.518 -6.403,-12.568 C 3.934,551.342 -5.961,490.589 30.451,454.161 c 5.288,-5.29 5.076,-7.992 0.262,-13.432 -21.724,-24.552 -22.328,-65.118 -1.429,-90.553 5.411,-6.586 6.878,-12.108 4.688,-20.946 -8.127,-32.794 1.515,-60.778 26.726,-83.135 4.074,-3.613 5.712,-7.114 5.739,-12.42 0.194,-37.998 25.177,-67.031 62.8,-72.65 7.725,-1.155 11.995,-3.711 14.746,-11.786 15.55,-45.635 72.893,-65.57 114.535,-40.456 11.327,6.831 20.705,15.562 27.501,26.909 7.943,13.26 10.564,26.336 5.311,42.257 -24.373,73.858 -47.541,148.116 -71.078,222.25 -1.097,3.452 -2.927,6.91 -1.585,12.346 z m -56.919,227.529 c -3.263,5.098 -7.172,8.623 -11.921,10.418 -7.723,2.916 -8.042,7.66 -5.947,14.647 12.99,43.319 63.4,66.054 105.545,47.364 30.49,-13.519 45.452,-38.884 42.667,-72.225 -0.27,-3.225 -0.173,-6.478 -0.313,-9.716 -1.05,-24.259 -2.23,-48.516 -3.099,-72.781 -0.228,-6.366 -2.364,-6 -6.643,-3.031 -10.206,7.084 -20.557,13.957 -30.854,20.909 -11.193,7.557 -22.382,15.117 -33.597,22.643 -1.306,0.879 -2.781,2.413 -4.343,1.506 -2.183,-1.27 -0.694,-3.345 -0.33,-5.071 0.222,-1.052 0.647,-2.06 0.971,-3.09 22.018,-69.794 44.048,-139.583 65.98,-209.402 0.625,-1.994 2.778,-4.182 0.148,-6.941 -21.979,14.425 -43.924,28.829 -66.003,43.323 -2.007,-3.616 -0.416,-5.826 0.276,-8.009 25.061,-79.025 50.021,-158.086 75.483,-236.985 3.165,-9.805 2.42,-18.404 -1.511,-27.344 -13.837,-31.46 -41.931,-47.302 -79.571,-44.834 -29.329,1.921 -55.53,24.188 -64.09,54.905 -1.347,4.835 -3.733,6.53 -8.469,6.657 -38.719,1.041 -69.586,35.419 -66.544,71.204 0.443,5.204 -1.01,9.091 -5.371,12.603 -25.91,20.86 -34.125,48.192 -28.212,80.271 2.043,11.093 2.871,11.174 12.359,5.14 7.958,-5.059 16.249,-9.444 27.369,-11.116 -2.895,3.742 -5.484,3.707 -7.705,4.464 -51.175,17.414 -67.479,75.265 -32.653,116.52 3.965,4.696 3.184,7.438 -0.783,11.449 -29.305,29.63 -31.668,70.561 -5.576,101.661 23.607,28.134 67.672,33.147 97.44,10.531 1.185,-0.901 2.291,-2.409 4.211,-1.466 -0.057,0.505 0.067,1.16 -0.199,1.43 -0.942,0.951 -1.955,1.863 -3.054,2.627 -17.67,12.291 -37.038,17.615 -58.306,12.826 -7.405,-1.667 -9.632,0.936 -10.428,7.592 -2.888,24.217 10.058,48.971 32.088,60.842 20.949,11.289 47.171,8.413 66.03,-7.214 1.186,-0.982 2.044,-2.571 4.955,-2.307 z"
   id="path8"
   style="clip-rule:evenodd;fill:#ffffff;fill-rule:evenodd;stroke:#ffffff;stroke-width:3;stroke-miterlimit:10"
   inkscape:connector-curvature="0" />
	<path
   stroke-miterlimit="10"
   d="m 452.953,639.259 c 1.991,5.59 6.319,8.85 11.085,11.034 6.94,3.182 7.454,7.661 5.49,14.365 -13.746,46.957 -71.576,69.21 -113.991,43.768 -15.938,-9.559 -26.906,-23.037 -33.407,-40.365 -1.792,-4.771 -1.875,-9.2 -0.265,-14.132 21.718,-66.492 43.28,-133.036 64.872,-199.569 5.002,-15.414 9.985,-30.832 14.926,-46.265 0.555,-1.733 1.999,-3.917 0.449,-5.325 -2.146,-1.947 -3.954,0.552 -5.571,1.616 -17.825,11.734 -35.569,23.589 -53.368,35.36 -2.389,1.58 -4.568,3.734 -9.395,4.09 23.339,-72.946 46.394,-145.002 69.608,-217.563 -4.222,-1.014 -6.264,1.559 -8.488,3.048 -20.197,13.529 -40.296,27.202 -60.489,40.739 -2.111,1.416 -4.188,4.343 -7.038,2.822 -2.416,-1.29 -1.396,-4.388 -1.513,-6.726 -1.552,-30.988 -2.861,-61.989 -4.632,-92.963 -2.039,-35.628 29.161,-69.612 66.297,-71.781 41.641,-2.433 68.75,15.762 82.168,55.66 1.867,5.546 5.445,5.705 9.907,6.006 31.192,2.102 57.252,24.303 63.982,54.245 1.323,5.887 1.329,11.838 0.974,17.74 -0.326,5.469 1.881,8.913 5.965,12.34 26.185,21.964 34.277,49.896 26.884,82.892 -1.563,6.968 -3.96,7.729 -9.595,3.349 -8.131,-6.32 -17.584,-10.027 -28.358,-12.394 1.413,3.763 4.162,3.453 6.243,4.153 30.446,10.219 51.188,36.953 51.802,68.489 0.338,17.548 -5.386,33.739 -17.42,46.734 -5.454,5.891 -4.637,8.777 0.634,14.089 20.052,20.206 27.004,44.638 19.363,72.153 -7.668,27.612 -26.354,44.961 -54.164,51.306 -18.514,4.223 -36.54,1.35 -52.979,-8.877 -2.931,-1.823 -5.807,-3.732 -9.255,-5.953 -0.386,3.636 1.954,4.387 3.537,5.438 17.599,11.666 36.691,17.205 57.692,12.436 7.154,-1.623 9.783,0.362 10.505,7.33 3.553,34.328 -22.211,66.243 -55.917,67.436 -16.472,0.581 -30.965,-3.436 -43.26,-14.63 -0.945,-0.862 -2.179,-1.404 -3.278,-2.095 z"
   id="path10"
   style="clip-rule:evenodd;fill:#ffffff;fill-rule:evenodd;stroke:#ffffff;stroke-width:3;stroke-miterlimit:10"
   inkscape:connector-curvature="0" />
	<path
   stroke-miterlimit="10"
   d="m 161.748,640.074 c -2.911,-0.265 -3.77,1.325 -4.953,2.307 -18.859,15.627 -45.082,18.503 -66.03,7.214 -22.03,-11.871 -34.977,-36.625 -32.088,-60.842 0.795,-6.656 3.023,-9.259 10.428,-7.592 21.269,4.789 40.636,-0.535 58.306,-12.826 1.099,-0.764 2.112,-1.676 3.054,-2.627 0.266,-0.27 0.142,-0.925 0.199,-1.43 -1.92,-0.943 -3.026,0.564 -4.211,1.466 C 96.685,588.36 52.62,583.347 29.013,555.213 2.92,524.112 5.284,483.182 34.589,453.552 c 3.967,-4.012 4.749,-6.753 0.783,-11.449 -34.826,-41.255 -18.522,-99.106 32.653,-116.52 2.221,-0.757 4.81,-0.722 7.705,-4.464 -11.12,1.672 -19.41,6.057 -27.369,11.116 -9.488,6.034 -10.315,5.953 -12.359,-5.14 -5.912,-32.079 2.302,-59.411 28.212,-80.271 4.361,-3.512 5.814,-7.399 5.371,-12.603 -3.042,-35.784 27.826,-70.163 66.544,-71.204 4.735,-0.127 7.122,-1.822 8.469,-6.657 8.56,-30.718 34.761,-52.984 64.09,-54.905 37.641,-2.468 65.734,13.374 79.571,44.834 3.931,8.94 4.676,17.54 1.511,27.344 -25.462,78.899 -50.422,157.96 -75.483,236.985 -0.692,2.183 -2.284,4.393 -0.276,8.009 22.079,-14.494 44.024,-28.897 66.003,-43.323 2.63,2.759 0.477,4.947 -0.148,6.941 -21.932,69.819 -43.962,139.608 -65.98,209.402 -0.324,1.03 -0.75,2.038 -0.971,3.09 -0.364,1.727 -1.853,3.802 0.33,5.071 1.562,0.907 3.037,-0.627 4.343,-1.506 11.214,-7.525 22.404,-15.086 33.597,-22.643 10.297,-6.952 20.648,-13.825 30.854,-20.909 4.279,-2.969 6.416,-3.335 6.643,3.031 0.869,24.266 2.049,48.522 3.099,72.781 0.14,3.238 0.043,6.491 0.313,9.716 2.785,33.341 -12.177,58.706 -42.667,72.225 -42.146,18.689 -92.555,-4.045 -105.545,-47.364 -2.095,-6.987 -1.775,-11.731 5.947,-14.647 4.747,-1.795 8.656,-5.32 11.919,-10.418 z"
   id="path12"
   style="clip-rule:evenodd;fill:#ffffff;fill-rule:evenodd;stroke:#ffffff;stroke-width:3;stroke-miterlimit:10"
   inkscape:connector-curvature="0" />
<text
   xml:space="preserve"
   style="font-style:normal;font-weight:normal;font-size:149.34365845px;line-height:1.25;font-family:sans-serif;letter-spacing:0px;word-spacing:0px;fill:#ffffff;fill-opacity:1;stroke:none;stroke-width:0.99999994"
   x="-126.85497"
   y="237.34178"
   id="text833"><tspan
     sodipodi:role="line"
     id="tspan831"
     x="-126.85495"
     y="237.34178"
     style="text-align:end;text-anchor:end;fill:#ffffff;stroke-width:0.99999994">Powered</tspan><tspan
     sodipodi:role="line"
     x="-126.85498"
     y="424.02136"
     id="tspan835"
     style="text-align:end;text-anchor:end;fill:#ffffff;stroke-width:0.99999994">By</tspan></text>

<text
   id="text841"
   y="476.82758"
   x="734.49042"
   style="font-style:normal;font-weight:normal;font-size:173.48962402px;line-height:1.25;font-family:sans-serif;letter-spacing:0px;word-spacing:0px;fill:#ffffff;fill-opacity:1;stroke:none;stroke-width:1"
   xml:space="preserve"><tspan
     style="fill:#ffffff;stroke-width:1"
     id="tspan839"
     y="476.82758"
     x="734.49042"
     sodipodi:role="line">Electric</tspan><tspan
     style="fill:#ffffff;stroke-width:1"
     y="693.68958"
     x="734.49042"
     sodipodi:role="line"
     id="tspan845">Brain</tspan></text>

</g>
</svg>